<svg viewBox="0 0 702 140" xmlns="http://www.w3.org/2000/svg"><g fill="none" fill-rule="evenodd"><path d="m236.145 101 4.015-12.98h25.465l4.015 12.98h18.535l-23.485-73.81h-22.385l-24.86 73.81zm25.465-26.015h-16.995l8.635-27.005zm55.44 26.015v-75.9h-17.6v75.9zm36.3 26.29-.001-28.571.054988.0502c.552464.5104 1.143472.968 1.773024 1.3728l.317988.198c2.676667 1.613333 6.013333 2.42 10.01 2.42 4.583333 0 8.8825-1.136667 12.8975-3.41 4.015-2.2733333 7.26-5.555 9.735-9.845s3.7125-9.4783333 3.7125-15.565c0-6.1233333-1.219167-11.33-3.6575-15.62s-5.600833-7.5716667-9.4875-9.845-7.993333-3.41-12.32-3.41c-3.263333 0-6.343333.8341667-9.24 2.5025-2.0856 1.2012-3.881328 2.929872-5.387184 5.186016l-.216816.332484-1.436-6.261h-14.355v80.465zm9.35-40.59c-1.686667 0-3.245-.3116667-4.675-.935s-2.566667-1.485-3.41-2.585-1.265-2.3833333-1.265-3.85h-.001v-8.91l.0065-.3780333c.047667-1.6238445.405167-3.0617889 1.0725-4.3138334l.1595-.2856333c.825-1.4116667 1.970833-2.5025 3.4375-3.2725s3.135-1.155 5.005-1.155c2.31 0 4.299167.5316667 5.9675 1.595s2.960833 2.5666667 3.8775 4.51 1.375 4.2166667 1.375 6.82c0 3.08-.614167 5.555-1.8425 7.425s-2.731667 3.2266667-4.51 4.07-3.510833 1.265-5.1975 1.265zm53.625-46.86c3.226667 0 5.775-.8525 7.645-2.5575s2.805-4.1158333 2.805-7.2325c0-3.0433333-.935-5.4725-2.805-7.2875s-4.418333-2.7225-7.645-2.7225c-3.336667 0-5.9125.9075-7.7275 2.7225s-2.7225 4.2441667-2.7225 7.2875c0 3.1166667.9075 5.5275 2.7225 7.2325s4.390833 2.5575 7.7275 2.5575zm8.8 61.16v-54.505h-17.6v54.505zm37.84 0v-22.825l.003125-.5599432c.041667-3.6992424.5-6.7242424 1.375-9.075l.134375-.3475568c1.008333-2.5116667 2.355833-4.3358333 4.0425-5.4725s3.538333-1.705 5.555-1.705c1.98 0 3.666667.6875 5.06 2.0625s2.09 3.4925 2.09 6.3525v31.57h17.71v-31.57c0-4.73-.696667-8.9283333-2.09-12.595s-3.565833-6.545-6.5175-8.635-6.755833-3.135-11.4125-3.135c-4.07 0-7.709167 1.1366667-10.9175 3.41-1.991379 1.4110345-3.721427 3.3235434-5.190143 5.7375268l-.151357.2534732-1.781-7.641h-15.51v54.175zm74.855 1.76c4.473333 0 8.424167-.806667 11.8525-2.42 3.428333-1.6133333 6.215-3.795 8.36-6.545s3.4925-5.8116667 4.0425-9.185h-17.49c-.476667 1.43-1.32 2.475-2.53 3.135s-2.621667.99-4.235.99c-1.98 0-3.620833-.4675-4.9225-1.4025s-2.2825-2.2458333-2.9425-3.9325-.99-3.685-.99-5.995l.001.11h32.559c.868421-3.8905263 1.037535-7.6740997.507341-11.3507202l-.094841-.6117798c-.641667-3.8683333-1.998333-7.3425-4.07-10.4225s-4.794167-5.5275-8.1675-7.3425-7.333333-2.7225-11.88-2.7225c-4.583333 0-8.873333 1.1366667-12.87 3.41s-7.223333 5.5458333-9.68 9.8175-3.685 9.3958333-3.685 15.3725 1.2375 11.1466667 3.7125 15.51 5.710833 7.7183333 9.7075 10.065c3.996667 2.346667 8.268333 3.52 12.815 3.52zm8.359-34.155h-17.135l.001178-.0151556c.133629-1.5041481.434296-2.8412592.902-4.0113333l.145322-.3460111c.751667-1.705 1.815-3.0066667 3.19-3.905s2.9975-1.3475 4.8675-1.3475c1.686667 0 3.070833.3391667 4.1525 1.0175s1.915833 1.5766667 2.5025 2.695.980833 2.3375 1.1825 3.6575c.100833.66.162708 1.3154167.185625 1.96625zm34.596 33.385c3.483333 0 6.361667-1.054167 8.635-3.1625 2.273333-2.1083333 3.41-4.7941667 3.41-8.0575s-1.136667-5.9766667-3.41-8.14-5.151667-3.245-8.635-3.245-6.315833 1.0816667-8.4975 3.245-3.2725 4.8766667-3.2725 8.14c0 3.2266667 1.090833 5.9033333 3.2725 8.03 2.181667 2.126667 5.014167 3.19 8.4975 3.19zm33.605-62.15c3.226667 0 5.775-.8525 7.645-2.5575s2.805-4.1158333 2.805-7.2325c0-3.0433333-.935-5.4725-2.805-7.2875s-4.418333-2.7225-7.645-2.7225-5.793333.9075-7.7 2.7225-2.86 4.2441667-2.86 7.2875c0 3.1166667.953333 5.5275 2.86 7.2325s4.473333 2.5575 7.7 2.5575zm-10.505 89.375c6.416667 0 11.275-1.750833 14.575-5.2525s4.95-9.414167 4.95-17.7375v-59.62h-17.71v59.29c0 3.153333-.559167 5.261667-1.6775 6.325s-2.814167 1.595-5.0875 1.595c-1.76 0-3.666667-.256667-5.72-.77s-3.868333-1.081667-5.445-1.705v15.125c2.53.696667 5.041667 1.329167 7.535 1.8975s5.353333.8525 8.58.8525zm60.665-26.455c4.546667 0 8.616667-.843333 12.21-2.53 3.593333-1.6866667 6.425833-3.8775 8.4975-6.5725s3.1075-5.5458333 3.1075-8.5525c0-3.3-1.063333-6.05-3.19-8.25s-5.041667-4.0333333-8.745-5.5l-14.96-5.995c-2.31-.8066667-3.465-1.9066667-3.465-3.3 0-1.0266667.55-1.8516667 1.65-2.475s2.603333-.935 4.51-.935c2.31 0 3.96.4308333 4.95 1.2925s1.485 1.8791667 1.485 3.0525h16.115c-.036667-5.2066667-1.998333-9.4966667-5.885-12.87s-9.441667-5.06-16.665-5.06c-7.7 0-13.768333 1.485-18.205 4.455s-6.655 6.8566667-6.655 11.66c0 3.41 1.054167 6.3525 3.1625 8.8275s5.105833 4.5191667 8.9925 6.1325l13.145 5.115c1.393333.55 2.42 1.1 3.08 1.65s.99 1.2833333.99 2.2c0 .6966667-.238333 1.3475-.715 1.9525s-1.191667 1.0908333-2.145 1.4575-2.163333.55-3.63.55c-2.42 0-4.335833-.3666667-5.7475-1.1s-2.154167-2.0533333-2.2275-3.96h-15.895c-.036667 4.2166667 1.054167 7.7091667 3.2725 10.4775s5.3075 4.84 9.2675 6.215 8.525 2.0625 13.695 2.0625z" fill="#2d3441" fill-rule="nonzero"/><g transform="translate(0 12)"><path d="m149.520377 10.3027772 39.8721 39.6972228-39.8721 39.6972228-39.872101-39.6972228z" fill="#77c1d2"/><path d="m49.8401255 10.3027772 82.6598485 82.297305h-79.7442011l-42.78774779-42.6000822z" fill="#2d3441"/></g></g></svg>