<svg height="111" viewBox="0 0 458 111" width="458" xmlns="http://www.w3.org/2000/svg"><g fill="none" fill-rule="evenodd"><path d="m67.5068339 83.0664138c2.4937045-2.4900352 6.5303063-2.4835316 9.0160023.014526 2.485696 2.4980577 2.4792038 6.5417058-.0145007 9.031741l-11.0731904 11.0568962c-10.2159119 10.201167-26.8746788 10.349096-37.2628873.343627-.0600408-.057526-4.6856748-4.5930714-19.94523195-19.5561845-10.15181064-9.95413-11.1631753-25.8821459-1.61005036-36.1106551l17.81171891-19.0718183c9.4813099-10.1526867 26.9587543-11.2623215 37.7992963-2.4956229l16.1773005 13.0831003c2.7396044 2.2156057 3.1675191 6.236474.9557743 8.9808607s-6.2256063 3.1730485-8.9652107.9574428l-16.1771914-13.0830121c-5.6693821-4.5848044-15.5867524-3.9551552-20.4788099 1.2833116l-17.8119479 19.0720634c-4.6506983 4.9794921-4.1413443 13.0013257 1.2182227 18.2565287 11.2054056 10.9877207 19.8412788 19.4554028 19.8512705 19.4650064 5.4007583 5.2017588 14.1334632 5.124213 19.4361812-.1708513z" fill="#ffa116" fill-rule="nonzero"/><path d="m40.6069914 72.0014117c-3.5209724 0-6.3752846-2.8592947-6.3752846-6.3864135s2.8543122-6.3864135 6.3752846-6.3864135h47.017724c3.5209725 0 6.3752846 2.8592947 6.3752846 6.3864135s-2.8543121 6.3864135-6.3752846 6.3864135z" fill="#b3b3b3"/><g fill="#000"><path d="m49.4124315 2.02335002c2.4054666-2.57567047 6.4398375-2.71024397 9.0110196-.3005783 2.5711822 2.40966566 2.7055211 6.45107911.3000545 9.02674958l-42.7952779 45.8233484c-4.6508618 4.9791143-4.1415109 13.0008992 1.2177032 18.2563135l19.7634927 19.3799267c2.5161278 2.4672952 2.5591998 6.5107181.0962041 9.0312381-2.4629958 2.52052-6.4993729 2.563668-9.0155007.096372l-19.76358411-19.3800159c-10.15121703-9.9546036-11.16257816-25.8825639-1.60902756-36.1103931z"/><path d="m131.914062 38.8828125v42.03125c0 1.6145914.572911 2.9947859 1.71875 4.140625 1.14584 1.1458391 2.526034 1.71875 4.140626 1.71875h11.367187c.989588 0 1.835934.351559 2.539063 1.0546875.703128.7031285 1.054687 1.5494742 1.054687 2.5390625v.078125c0 .9895883-.351559 1.8229133-1.054687 2.5-.703129.7031285-1.549475 1.0546875-2.539063 1.0546875h-11.367187c-3.61981 0-6.705717-1.2760289-9.257813-3.828125s-3.828125-5.6380027-3.828125-9.2578125v-42.03125c0-.9895883.351559-1.835934 1.054688-2.5390625.703128-.6770867 1.536453-1.015625 2.5-1.015625h.117187c.963546 0 1.796871.3385383 2.5 1.015625.703129.7031285 1.054687 1.5494742 1.054687 2.5390625zm45.273438 19.765625c-3.90627 0-7.23957 1.3801945-10 4.140625-2.734389 2.7604305-4.101562 6.0937305-4.101562 10 0 .7031285.052082 1.3932258.15625 2.0703125l24.726562-11.171875c-2.812514-3.3593918-6.406228-5.0390625-10.78125-5.0390625zm19.375 5.15625c.416669.8854211.455731 1.7968703.117188 2.734375-.338544.9114629-.963538 1.5755187-1.875 1.9921875-3.645852 1.6406332-8.437471 3.8020699-14.375 6.484375-7.369829 3.33335-12.148427 5.4947867-14.335938 6.484375 2.812514 3.593768 6.510394 5.390625 11.09375 5.390625 3.04689 0 5.807279-.8984285 8.28125-2.6953125 2.395845-1.7448004 4.075516-4.0104027 5.039062-6.796875.57292-1.6145914 1.718742-2.421875 3.4375-2.421875 1.223965 0 2.200518.5078074 2.929688 1.5234375.703129.9895883.846356 2.0703066.429688 3.2421875-1.458341 4.2187711-4.010399 7.6301953-7.65625 10.234375-3.723977 2.6823051-7.877582 4.0234375-12.460938 4.0234375-5.885446 0-10.911437-2.0833125-15.078125-6.25s-6.25-9.1926789-6.25-15.078125 2.083312-10.9114375 6.25-15.078125 9.192679-6.25 15.078125-6.25c4.244813 0 8.124982 1.1588426 11.640625 3.4765625 3.463559 2.2656363 6.041658 5.260398 7.734375 8.984375zm28.164062-5.15625c-3.906269 0-7.239569 1.3801945-10 4.140625-2.734388 2.7604305-4.101562 6.0937305-4.101562 10 0 .7031285.052083 1.3932258.15625 2.0703125l24.726562-11.171875c-2.812514-3.3593918-6.406228-5.0390625-10.78125-5.0390625zm19.375 5.15625c.416669.8854211.455731 1.7968703.117188 2.734375-.338543.9114629-.963537 1.5755187-1.875 1.9921875-3.645852 1.6406332-8.43747 3.8020699-14.375 6.484375-7.369829 3.33335-12.148427 5.4947867-14.335938 6.484375 2.812515 3.593768 6.510394 5.390625 11.09375 5.390625 3.046891 0 5.80728-.8984285 8.28125-2.6953125 2.395846-1.7448004 4.075517-4.0104027 5.039063-6.796875.57292-1.6145914 1.718741-2.421875 3.4375-2.421875 1.223964 0 2.200517.5078074 2.929687 1.5234375.703129.9895883.846357 2.0703066.429688 3.2421875-1.458341 4.2187711-4.010398 7.6301953-7.65625 10.234375-3.723977 2.6823051-7.877581 4.0234375-12.460938 4.0234375-5.885446 0-10.911437-2.0833125-15.078124-6.25-4.166688-4.1666875-6.25-9.1926789-6.25-15.078125s2.083312-10.9114375 6.25-15.078125c4.166687-4.1666875 9.192678-6.25 15.078124-6.25 4.244813 0 8.124983 1.1588426 11.640626 3.4765625 3.463558 2.2656363 6.041658 5.260398 7.734374 8.984375zm11.679688-28.4765625c.963546 0 1.796871.3385383 2.5 1.015625.703129.7031285 1.054688 1.5494742 1.054688 2.5390625v12.4609375h7.03125c.963546 0 1.796871.351559 2.5 1.0546875.703128.7031285 1.054687 1.5494742 1.054687 2.5390625v.078125c0 .9895883-.351559 1.8229133-1.054687 2.5-.703129.7031285-1.536454 1.0546875-2.5 1.0546875h-7.03125v24.3359375c0 1.0677137.3776 1.9791629 1.132812 2.734375s1.679682 1.1328125 2.773438 1.1328125h3.125c.963546 0 1.796871.351559 2.5 1.0546875.703128.7031285 1.054687 1.5494742 1.054687 2.5390625v.078125c0 .9895883-.351559 1.8229133-1.054687 2.5-.703129.7031285-1.536454 1.0546875-2.5 1.0546875h-3.125c-3.072933 0-5.703115-1.0807184-7.890625-3.2421875-2.16147-2.1875109-3.242188-4.8046723-3.242188-7.8515625v-44.0234375c0-.9895883.351559-1.835934 1.054688-2.5390625.703128-.6770867 1.536453-1.015625 2.5-1.015625zm47.96875 0c2.473971 0 4.908842.2994762 7.304688.8984375 1.796883.4687523 2.695312 1.6145742 2.695312 3.4375v.1171875c0 1.1458391-.468745 2.0833297-1.40625 2.8125-.911463.7031285-1.927078.9114598-3.046875.625-1.822926-.4687523-3.671866-.703125-5.546875-.703125-6.09378 0-11.302062 2.1614367-15.625 6.484375s-6.484375 9.5442402-6.484375 15.6640625 2.161437 11.3411242 6.484375 15.6640625c4.322938 4.2968965 9.53122 6.4453125 15.625 6.4453125 1.875009 0 3.723949-.221352 5.546875-.6640625 1.119797-.2864598 2.135412-.0781285 3.046875.625.937505.7031285 1.40625 1.6406191 1.40625 2.8125v.078125c0 1.8489676-.898429 3.0078102-2.695312 3.4765625-2.395846.5989613-4.830717.8984375-7.304688.8984375-8.098999 0-15.012992-2.8645547-20.742188-8.59375-5.729195-5.7291953-8.59375-12.6431887-8.59375-20.7421875s2.864555-15.0129922 8.59375-20.7421875c5.729196-5.7291953 12.643189-8.59375 20.742188-8.59375zm36.40625 23.3203125c-3.90627 0-7.23957 1.3801945-10 4.140625-2.734389 2.7604305-4.101562 6.0937305-4.101562 10 0 3.8802277 1.367173 7.200507 4.101562 9.9609375 2.76043 2.7604305 6.09373 4.140625 10 4.140625s7.226549-1.3801945 9.960938-4.140625c2.76043-2.7604305 4.140624-6.0807098 4.140624-9.9609375 0-3.9062695-1.380194-7.2395695-4.140624-10-2.734389-2.7604305-6.054668-4.140625-9.960938-4.140625zm0-7.3046875c5.885446 0 10.911437 2.0833125 15.078125 6.25s6.25 9.1926789 6.25 15.078125-2.083312 10.9114375-6.25 15.078125-9.192679 6.25-15.078125 6.25-10.911437-2.0833125-15.078125-6.25-6.25-9.1926789-6.25-15.078125 2.083312-10.9114375 6.25-15.078125 9.192679-6.25 15.078125-6.25zm48.125 7.3046875c-3.90627 0-7.23957 1.3801945-10 4.140625-2.734389 2.7604305-4.101562 6.0937305-4.101562 10 0 3.8802277 1.367173 7.200507 4.101562 9.9609375 2.76043 2.7604305 6.09373 4.140625 10 4.140625s7.226549-1.3801945 9.960938-4.140625c2.76043-2.7604305 4.140624-6.0807098 4.140624-9.9609375 0-3.9062695-1.380194-7.2395695-4.140624-10-2.734389-2.7604305-6.054668-4.140625-9.960938-4.140625zm17.773438-23.3203125c.963546 0 1.796871.3385383 2.5 1.015625.703128.7031285 1.054687 1.5494742 1.054687 2.5390625v33.90625c-.026042 5.8594043-2.122375 10.8593543-6.289062 15-4.166688 4.1406457-9.179659 6.2109375-15.039063 6.2109375-5.885446 0-10.911437-2.0833125-15.078125-6.25s-6.25-9.1926789-6.25-15.078125 2.083312-10.9114375 6.25-15.078125 9.192679-6.25 15.078125-6.25c5.36461 0 10.065084 1.7838363 14.101563 5.3515625v-17.8125c0-.9895883.351558-1.835934 1.054687-2.5390625.703129-.6770867 1.536454-1.015625 2.5-1.015625zm31.523437 23.3203125c-3.90627 0-7.23957 1.3801945-10 4.140625-2.734389 2.7604305-4.101563 6.0937305-4.101563 10 0 .7031285.052083 1.3932258.15625 2.0703125l24.726563-11.171875c-2.812514-3.3593918-6.406228-5.0390625-10.78125-5.0390625zm19.375 5.15625c.416669.8854211.455731 1.7968703.117187 2.734375-.338543.9114629-.963537 1.5755187-1.875 1.9921875-3.645851 1.6406332-8.43747 3.8020699-14.375 6.484375-7.369828 3.33335-12.148426 5.4947867-14.335937 6.484375 2.812514 3.593768 6.510394 5.390625 11.09375 5.390625 3.04689 0 5.807279-.8984285 8.28125-2.6953125 2.395845-1.7448004 4.075516-4.0104027 5.039063-6.796875.572919-1.6145914 1.718741-2.421875 3.4375-2.421875 1.223964 0 2.200517.5078074 2.929687 1.5234375.703129.9895883.846356 2.0703066.429687 3.2421875-1.45834 4.2187711-4.010398 7.6301953-7.65625 10.234375-3.723976 2.6823051-7.877581 4.0234375-12.460937 4.0234375-5.885446 0-10.911437-2.0833125-15.078125-6.25s-6.25-9.1926789-6.25-15.078125 2.083312-10.9114375 6.25-15.078125 9.192679-6.25 15.078125-6.25c4.244813 0 8.124982 1.1588426 11.640625 3.4765625 3.463559 2.2656363 6.041658 5.260398 7.734375 8.984375z"/></g></g></svg>