<svg fill="none" viewBox="0 0 95 111" xmlns="http://www.w3.org/2000/svg"><path d="m68.0063 83.0664c2.4937-2.49 6.5303-2.4835 9.016.0145 2.4857 2.4981 2.4792 6.5417-.0145 9.0318l-11.0732 11.0573c-10.2159 10.201-26.8746 10.349-37.2628.343-.0601-.057-4.6857-4.5929-19.94527-19.556-10.15181-9.9541-11.16318-25.8821-1.61005-36.1106l17.81172-19.0719c9.4813-10.1526 26.9588-11.2623 37.7993-2.4956l16.1773 13.0831c2.7396 2.2156 3.1675 6.2365.9558 8.9809-2.2118 2.7444-6.2256 3.173-8.9652.9574l-16.1772-13.083c-5.6694-4.5848-15.5868-3.9551-20.4788 1.2833l-17.812 19.0721c-4.6507 4.9795-4.1413 13.0013 1.2182 18.2565 11.2054 10.9877 19.8413 19.4554 19.8513 19.465 5.4008 5.2018 14.1335 5.1242 19.4362-.1708z" fill="#ffa116"/><g clip-rule="evenodd" fill-rule="evenodd"><path d="m41.1067 72.0014c-3.5209 0-6.3753-2.8593-6.3753-6.3864s2.8544-6.3864 6.3753-6.3864h47.0178c3.5209 0 6.3752 2.8593 6.3752 6.3864s-2.8543 6.3864-6.3752 6.3864z" fill="#b3b3b3"/><path d="m49.9118 2.02335c2.4055-2.57567 6.4399-2.710244 9.011-.30058 2.5712 2.40967 2.7056 6.45108.3001 9.02673l-42.7953 45.8234c-4.6508 4.9791-4.1415 13.0009 1.2177 18.2563l19.7635 19.3799c2.5161 2.4673 2.5592 6.5109.0962 9.0309-2.463 2.521-6.4994 2.564-9.0155.097l-19.76357-19.3803c-10.15122-9.9546-11.16258-25.8826-1.60903-36.1104z" fill="#000"/></g></svg>