<svg height="284" viewBox="0 0 491.06667 75.141664" width="1856" xmlns="http://www.w3.org/2000/svg"><path d="m73.62375 37.865c0 20.47-16.48125 37.065-36.8125 37.065s-36.81125-16.59-36.81125-37.065 16.48125-37.06375 36.81125-37.06375 36.8125 16.59375 36.8125 37.06375m40.38375 0c0 19.27-8.24125 34.89-18.40625 34.89s-18.40625-15.625-18.40625-34.89 8.24125-34.89 18.40625-34.89 18.40625 15.625 18.40625 34.89m16.5175 0c0 17.265-2.89875 31.26-6.47375 31.26s-6.47375-14-6.47375-31.26 2.89875-31.26 6.475-31.26 6.4725 13.99625 6.4725 31.26m101.59625-33.85.1025-.0225v-.79375h-20.935l-19.43875 45.6875-19.43875-45.6875h-22.56v.79375l.10125.0225c3.82125.8625 5.76125 2.14875 5.76125 6.7875v54.30625c0 4.63875-1.9475 5.925-5.76875 6.7875l-.10125.0225v.79625h15.30625v-.79375l-.10125-.0225c-3.82125-.8625-5.76125-2.14875-5.76125-6.7875v-51.15875l24.97125 58.7625h1.41625l25.69875-60.40125v54.13875c-.3275 3.66375-2.25 4.795-5.71 5.57625l-.1025.02375v.7875h26.6625v-.7875l-.1025-.02375c-3.46375-.78125-5.4325-1.9125-5.76-5.57625l-.0175-55.65h.0175c0-4.63875 1.94-5.925 5.76-6.7875m12.17875 35.975c.43625-9.7575 3.94-16.8 9.82-16.92125 1.81375.03 3.335.625 4.5175 1.77 2.5125 2.43875 3.69375 7.535 3.51125 15.15125zm-.26375 2.75h31.25v-.13125c-.0888-7.46125-2.25-13.265-6.4175-17.25-3.6025-3.44375-8.93625-5.33875-14.53875-5.33875h-.125c-2.9075 0-6.47375.705-9.01125 1.9825-2.88875 1.3375-5.43625 3.3375-7.55625 5.9625-3.4125 4.22875-5.48 9.94375-5.9825 16.36625-.0163.1925-.03.385-.0437.5775-.0138.1925-.0225.365-.0312.54875a41.58 41.58 0 0 0 -.045 2.71125c.33865 14.54625 8.19615 26.17125 22.1524 26.17125 12.25 0 19.38375-8.955 21.1625-20.975l-.89875-.31625c-3.125 6.46-8.7375 10.375-15.125 9.8975-8.72-.6525-15.4-9.49375-14.79375-20.20375m66.58625 19.71c-1.025 2.43125-3.16375 3.76875-6.03 3.76875s-5.48625-1.9675-7.3475-5.5425c-2-3.8375-3.0525-9.2625-3.0525-15.68875 0-13.375 4.16-22.02625 10.59875-22.02625 2.69625 0 4.81875 1.3375 5.83125 3.67125zm20.73 9.535c-3.82125-.90375-5.76125-2.25-5.76125-7.125v-64.8625l-23.21625 6.84v.8375l.1425-.01125c3.2025-.25875 5.375.18375 6.63625 1.34875.9875.9125 1.46875 2.3125 1.46875 4.2825v8.8925c-2.28875-1.46125-5.01125-2.1725-8.315-2.1725-6.7 0-12.82375 2.82125-17.24 7.945-4.60375 5.34-7.0375 12.6375-7.0375 21.10125-.002 15.11625 7.44 25.27625 18.515 25.27625 6.47875 0 11.69125-3.55 14.0775-9.5375v8.0375h20.83125v-.8325zm19.91125-63.16625c0-4.72-3.55875-8.28-8.28-8.28-4.69875 0-8.375 3.6375-8.375 8.28s3.68 8.28 8.375 8.28c4.72125 0 8.28-3.56 8.28-8.28m5.48 63.16625c-3.82125-.90375-5.76125-2.25-5.76125-7.125h-.0163v-44.69125l-20.83245 5.98125v.8125l.125.01125c4.5075.40125 5.74125 1.95375 5.74125 7.22125v38.6425h20.85v-.8325zm53.38125 0c-3.82125-.90375-5.76125-2.25-5.76125-7.125v-44.69125l-19.835 5.78375v.815l.1175.0125c3.685.3875 4.75 2.02875 4.75 7.32v28.25c-1.22875 2.43125-3.53375 3.875-6.32625 3.9725-4.52875 0-7.0225-3.05875-7.0225-8.6125v-37.54l-20.8325 5.98125v.81125l.125.01125c4.5075.4 5.7425 1.9525 5.7425 7.22125v23.90875a26.81 26.81 0 0 0 .43375 4.9775l.375 1.63125c1.76375 6.32 6.385 9.625 13.625 9.625 6.1325 0 11.5075-3.79625 13.875-9.73625v8.25h20.8325v-.8325zm80.92875.8525v-.83375l-.10125-.02375c-4.14625-.95625-5.76125-2.75875-5.76125-6.42875v-30.4c0-9.47875-5.32375-15.13625-14.24125-15.13625-6.5 0-11.98125 3.75625-14.09125 9.6075-1.67625-6.2-6.5-9.6075-13.6325-9.6075-6.265 0-11.175 3.30625-13.28125 8.89125v-8.73375l-20.8325 5.73625v.8175l.125.01125c4.45375.395 5.74125 1.9925 5.74125 7.125v38.975h19.4375v-.8325l-.1025-.025c-3.3075-.7775-4.375-2.195-4.375-5.8325v-34.845c.875-2.04375 2.63875-4.465 6.125-4.465 4.33 0 6.525 3 6.525 8.91v37.09h19.4425v-.8325l-.1025-.025c-3.3075-.7775-4.375-2.195-4.375-5.8325v-31a20.05625 20.05625 0 0 0 -.275-3.46c.9275-2.22125 2.7925-4.85 6.42125-4.85 4.39125 0 6.525 2.91375 6.525 8.91v37.09z"/></svg>